<!-- Generated by IcoMoon.io -->
<svg version="1.1" xmlns="http://www.w3.org/2000/svg" width="734" height="1024" viewBox="0 0 734 1024">
<title></title>
<g id="icomoon-ignore">
</g>
<path fill="#be9a5c" d="M366.632 498.347c-73.298 0-132.718-59.42-132.718-132.718s59.42-132.718 132.718-132.718v0-232.91c-202.326 0.211-366.262 164.277-366.262 366.632 0 56.425 12.746 109.873 35.517 157.621l-0.951-2.214c8.176 16.677 16.458 30.749 25.658 44.14l-0.761-1.172 307.2 458.993z"></path>
<path fill="#d3bb92" d="M367.034 1024l306.798-458.19c8.462-12.429 16.752-26.771 23.997-41.713l0.9-2.058c21.82-45.534 34.566-98.982 34.566-155.407 0-202.355-163.936-366.421-366.241-366.632h-0.021v232.91c73.298 0 132.718 59.42 132.718 132.718s-59.42 132.718-132.718 132.718v0z"></path>
</svg>
