<svg xmlns="http://www.w3.org/2000/svg" xmlns:xlink="http://www.w3.org/1999/xlink" viewBox="0 0 226 68.35"><defs><style>.cls-1{opacity:0.61;fill:url(#linear-gradient);}.cls-2,.cls-3{fill:#666;}.cls-3{font-size:8.44px;font-family:Georgia, Georgia;letter-spacing:0.32em;}</style><linearGradient id="linear-gradient" x1="112.69" y1="24.19" x2="121.53" y2="24.19" gradientTransform="matrix(1.02, 0, 0, 1.03, -4.92, -10.27)" gradientUnits="userSpaceOnUse"><stop offset="0.06" stop-color="#ffde5d"/><stop offset="0.11" stop-color="#ffe16c"/><stop offset="0.19" stop-color="#ffe993"/><stop offset="0.3" stop-color="#fff6d2"/><stop offset="0.38" stop-color="#fff"/><stop offset="0.39" stop-color="#fbf9f1"/><stop offset="0.43" stop-color="#eee5bf"/><stop offset="0.48" stop-color="#e2d392"/><stop offset="0.54" stop-color="#d7c36a"/><stop offset="0.59" stop-color="#cfb649"/><stop offset="0.65" stop-color="#c7ab2f"/><stop offset="0.71" stop-color="#c2a21a"/><stop offset="0.78" stop-color="#be9d0b"/><stop offset="0.87" stop-color="#bc9903"/><stop offset="1" stop-color="#bb9800"/></linearGradient></defs><title>IJ - Logo</title><g id="Layer_2" data-name="Layer 2"><g id="Layer_1-2" data-name="Layer 1"><path class="cls-1" d="M115.2,25.84v0l-.3.16c-2.79-1.06-4.31-3.22-4.51-6.46a6.18,6.18,0,0,0,4.48,3.76H115a6.24,6.24,0,0,0,4.43-3.77c-.19,3.13-1.61,5.27-4.23,6.36m3.88-9.71c-.34.48-1.93,2.6-4.17,2.6s-3.8-2-4.17-2.56h0l.08-.48a20.38,20.38,0,0,1,.82-2.64,5.88,5.88,0,0,0,6.52,0,20.8,20.8,0,0,1,.92,3.09m-1.37-8.48-.08.31a.26.26,0,0,0-.14.25.22.22,0,0,0,.05.1,5.22,5.22,0,0,0-.15,1.17,2.9,2.9,0,0,0,0,.72,6.58,6.58,0,0,0-2.47-.55h0a6.58,6.58,0,0,0-2.47.56,3,3,0,0,0,0-.72,8.27,8.27,0,0,0-.32-1.83.29.29,0,0,0-.08-.13,7.73,7.73,0,0,1,2.88-.89,7.75,7.75,0,0,1,2.88.88.34.34,0,0,0-.08.13m-6.23-2.77a3.65,3.65,0,0,1,1.09-1.36,6.22,6.22,0,0,0,2.21.41H115a6.2,6.2,0,0,0,2.2-.42,3.67,3.67,0,0,1,1.09,1.35A2.88,2.88,0,0,1,118.61,6a7.11,7.11,0,0,0-7.4,0,2.87,2.87,0,0,1,.26-1.17"/><path class="cls-2" d="M138.26.9A1.61,1.61,0,0,0,137.09,0a2.41,2.41,0,0,0-.44,0c-3.37,0-14.85,5.53-18,7.1v0A3.37,3.37,0,0,0,118.79,6c.48-.35,4.9-3.54,6.67-4.17.14,0-.88-1-4,1.53l-3,1.39a3.79,3.79,0,0,0-1.28-1.48l-.39.14.39-.14-.79-1.16a.44.44,0,0,0,.1-.09,11.42,11.42,0,0,0,2.34-.87A.28.28,0,0,0,119,.75c-.14-.21-.44,0-.44,0a5.46,5.46,0,0,1-2.29.91c-.14,0-.18.16-.16.3a4,4,0,0,1-1.2.17h0a4,4,0,0,1-1.2-.17c0-.14,0-.29-.16-.3a5.48,5.48,0,0,1-2.29-.91s-.3-.2-.44,0a.28.28,0,0,0,.12.41,11.42,11.42,0,0,0,2.34.87.37.37,0,0,0,.1.09l-.8,1.16.4.14-.4-.14a3.78,3.78,0,0,0-1.28,1.48l-3-1.39c-3.09-2.51-4.11-1.58-4-1.53,1.76.64,6.18,3.83,6.66,4.17a3.3,3.3,0,0,0,.18,1.07v0C108,5.53,96.51,0,93.14,0a2.38,2.38,0,0,0-.43,0A1.6,1.6,0,0,0,91.53.9a3.13,3.13,0,0,0,.16,2.44s0,0,0,0a.24.24,0,0,0,.1.33l.07,0a15.62,15.62,0,0,0,1.41,2.45A6.76,6.76,0,0,0,97,9.06a4.16,4.16,0,0,0-.24.38,3.49,3.49,0,0,0-.48,1.66c0,1.42,1.14,3.11,6.59,3.11h0l1.11,0c2.29-.09,5.57-1.8,7.25-2.78a10.26,10.26,0,0,0-3.94,5l-2,1.95s2.2.52,4.08-4.32c0,0,1.33-1.49,2.19-1.24a18.12,18.12,0,0,0-1.06,3.38s-2.26,2.21-2.26,4.18c0,0-1.9,1.9-.14,4.85,0,0,2.19-8,2.11-7-.24,3.07.53,6.52,4.68,7.93h0c4.16-1.42,4.92-4.89,4.68-7.93,1,.2,2.1,7,2.1,7,1.75-2.94-.14-4.85-.14-4.85,0-2-2.22-4.14-2.26-4.18a18.43,18.43,0,0,0-1.06-3.38c.86-.24,2.19,1.24,2.19,1.24,1.88,4.84,4.08,4.32,4.08,4.32l-2-1.95a10.28,10.28,0,0,0-3.94-5c1.68,1,4.95,2.69,7.24,2.78l1.12,0a11,11,0,0,0,5.21-.94,2.45,2.45,0,0,0,1.39-2.17,3.48,3.48,0,0,0-.48-1.66,3.55,3.55,0,0,0-.24-.38,6.77,6.77,0,0,0,3.73-2.88C138.2,3.75,138.79,2,138.26.9M126.88,9.66a7.68,7.68,0,0,0,1.27,2.44c-2.29-.19-5-.62-6.14-1.6a.26.26,0,0,0-.19-.05,18.94,18.94,0,0,1-3.65,0l-.19-.12c0-.19,0-.38,0-.53h1.65c1.65,0,4.77,0,7.29-.15m-15.38.74a17.49,17.49,0,0,1-3.87,0,.25.25,0,0,0-.18.05c-1.2,1-3.86,1.41-6.15,1.6a7.55,7.55,0,0,0,1.28-2.46h0c2.57.13,5.91.17,7.63.17h1.65c0,.15,0,.34,0,.53l-.17.11a.33.33,0,0,0-.15,0m6.14-2.71-.08.29a.24.24,0,0,0-.13.24.2.2,0,0,0,.05.1,4.67,4.67,0,0,0-.15,1.09,2.59,2.59,0,0,0,0,.67,6.7,6.7,0,0,0-2.41-.52h0a6.7,6.7,0,0,0-2.41.52,2.63,2.63,0,0,0,0-.67,7.41,7.41,0,0,0-.31-1.71.27.27,0,0,0-.08-.12,7.84,7.84,0,0,1,2.82-.83,7.86,7.86,0,0,1,2.81.83.31.31,0,0,0-.08.12m-.93-4.23-.26.07.26-.07m-.4.11-.24,0,.24,0m-1.41.14h0ZM116,3.64l-.31,0,.31,0m-.32,0-.28,0,.28,0m-.35,0h0m-.21,0h0Zm-1.35-.09-.25,0,.25,0m1.09.09h0Zm-.16,0h0m-.22,0-.28,0,.28,0m-.29,0-.3,0,.3,0m-.79-.14-.26-.07.26.07m-1.82,1.34a3.5,3.5,0,0,1,1.07-1.29,6.24,6.24,0,0,0,2.16.4H115a6.23,6.23,0,0,0,2.15-.4,3.52,3.52,0,0,1,1.07,1.29A2.67,2.67,0,0,1,118.52,6a7.13,7.13,0,0,0-7.24,0,2.66,2.66,0,0,1,.26-1.12M92.1,1.17A1,1,0,0,1,92.8.65h0a1.85,1.85,0,0,1,.32,0c3.42,0,16.33,6.33,18.31,7.31-2.55-.22-4.9-.55-7-.94a8.35,8.35,0,0,0-9.86-2.71l0,0c-1-.37-1.71-.67-2.12-.86-.56-1.29-.47-2-.32-2.29m11.57,5.66A61.45,61.45,0,0,1,95.2,4.55a7.67,7.67,0,0,1,8.47,2.28m-9.89-1a16.45,16.45,0,0,1-1-1.7,63.7,63.7,0,0,0,18.94,4.3h0l.11.65h-3.06q-4.63,0-7.67-.16l-.35,0c-.32,0-.64-.05-1-.07-2-.12-4.09-.25-6-3m3.85,3.41q1.31.19,3.39.29l1,.07a7.25,7.25,0,0,1-1.46,2.54c-1.64.1-3,.1-3.23.09a1.78,1.78,0,0,1-.35-.53,2.77,2.77,0,0,1,.62-2.46M104,13.57l-1.09,0h0A10.26,10.26,0,0,1,98,12.72c.6,0,1.54,0,2.63-.08h.08l.11,0c2.42-.17,5.44-.6,6.87-1.69a21,21,0,0,0,3,0c-1.68,1-4.7,2.5-6.75,2.58m11.22,12.12v0l-.29.14a6.26,6.26,0,0,1-4.41-5.94,6,6,0,0,0,4.38,3.46H115a6.07,6.07,0,0,0,4.33-3.46,6.22,6.22,0,0,1-4.15,5.84m3.81-9.6c-.33.45-1.89,2.45-4.09,2.45s-3.71-1.93-4.08-2.43h0l.08-.45a18.74,18.74,0,0,1,.8-2.49,5.93,5.93,0,0,0,6.38,0,19.11,19.11,0,0,1,.9,2.92m6.86-2.52c-2-.08-5-1.61-6.71-2.56a22.12,22.12,0,0,0,2.64-.07c1.43,1.09,4.45,1.52,6.88,1.69l.11,0h.08c1.19.08,2.22.09,2.81.09h.19c-1.13.65-3.16.95-6,.84m6.94-1.86a1.82,1.82,0,0,1-.45.65.22.22,0,0,0-.2-.11s-1.48,0-3.29-.09a7.22,7.22,0,0,1-1.45-2.52c.5,0,1-.05,1.38-.09q2.08-.11,3.4-.29a2.76,2.76,0,0,1,.62,2.46M136,5.83c-1.89,2.75-4,2.88-6,3-.32,0-.64,0-1,.07l-.36,0c-2,.11-4.58.16-7.66.16H118l.11-.65v0a62.07,62.07,0,0,0,19-4.46A16.49,16.49,0,0,1,136,5.83m-10.24,1a7.67,7.67,0,0,1,8.47-2.28,61.26,61.26,0,0,1-8.47,2.28m11.69-3.57h0s-.91.45-2.54,1.05l0,0A8.34,8.34,0,0,0,125,7c-2,.36-4.19.68-6.57.89,2.23-1.1,14.85-7.27,18.22-7.27a1.88,1.88,0,0,1,.32,0h0a1,1,0,0,1,.69.53,2.68,2.68,0,0,1-.24,2.09"/><g id="jyRv7B.tif"><path class="cls-2" d="M56.68,53.4H49.12a3.63,3.63,0,0,1-.4,0c-.26,0-.43-.13-.41-.44s.19-.39.45-.4l2.18,0c1.16,0,1.44-.62,1.55-1.43a4.21,4.21,0,0,0,0-.54q0-5.9,0-11.8a6.48,6.48,0,0,0-.08-1,1.32,1.32,0,0,0-1.21-1.13c-.81,0-1.61-.05-2.42-.07-.27,0-.48-.07-.5-.4a.36.36,0,0,1,.33-.43,3,3,0,0,1,.44,0H63.39a9.94,9.94,0,0,1,6.06,1.74A8.63,8.63,0,0,1,72.92,43a8.88,8.88,0,0,1-4.22,9.32,8.73,8.73,0,0,1-4.42,1.09h-7.6Zm2-.84c1.09,0,2.14,0,3.19,0a3.58,3.58,0,0,0,2.75-1.12,4.75,4.75,0,0,0,1.19-2.12,18.66,18.66,0,0,0,.5-5.41,13.47,13.47,0,0,0-.57-4.3,3.92,3.92,0,0,0-3.29-3c-1.22-.14-2.47-.07-3.71-.09,0,0,0,0-.07.06Z"/><path class="cls-2" d="M225.65,35.87c0,.14,0,.21,0,.27,0,1.83.06,3.67.08,5.5,0,.25.12.59-.22.71s-.48-.22-.66-.42c-1.06-1.11-2.08-2.26-3.19-3.32a6.84,6.84,0,0,0-5.07-1.9c-.8,0-1.6,0-2.4,0-.29,0-.38.07-.38.34q0,3.12,0,6.23c0,.26.08.36.35.35.55,0,1.11,0,1.65-.05A4.37,4.37,0,0,0,218.42,42c.34-.36.64-.76,1-1.13a2.09,2.09,0,0,1,.47-.29,1.61,1.61,0,0,1,.18.49c0,2,0,3.91,0,5.87a.62.62,0,0,1,0,.2l-.15.35a1.58,1.58,0,0,1-.42-.25c-.39-.44-.73-.94-1.14-1.36a4.86,4.86,0,0,0-4.24-1.43c-.09,0-.19.14-.23.24a.86.86,0,0,0,0,.32q0,3.52,0,7c0,.74,0,.6.62.59a31.7,31.7,0,0,0,3.43-.12,8.77,8.77,0,0,0,4-1.94A20,20,0,0,0,225,47.4a3.08,3.08,0,0,1,.38-.42c.1-.08.29-.17.38-.13a.5.5,0,0,1,.22.37c0,.82,0,1.64,0,2.47,0,1.13,0,2.26,0,3.4,0,.36-.1.45-.45.45H203.92c-.26,0-.45-.16-.43-.44a.41.41,0,0,1,.46-.4c.79,0,1.58,0,2.37-.07a1.44,1.44,0,0,0,1.35-1.32c0-.27,0-.54,0-.81q0-5.79,0-11.57a5.18,5.18,0,0,0-.14-1.27,1.14,1.14,0,0,0-.94-.85c-.49-.07-1,0-1.48-.1s-1.29.43-1.66-.42c.39-.83,1.13-.38,1.68-.39,4.92,0,9.84,0,14.77,0h5.72Z"/><path class="cls-2" d="M40,45.25c-.08-1.86-.13-3.71-.25-5.57a3.92,3.92,0,0,0-1.09-2.3,2.52,2.52,0,0,0-1.92-.8,1.27,1.27,0,0,1-.48,0,.69.69,0,0,1-.36-.39c0-.1.17-.29.3-.38a.75.75,0,0,1,.39-.06h7.93a3,3,0,0,1,.4,0c.26,0,.42.21.34.44a.61.61,0,0,1-.4.34c-.52.09-1,.07-1.56.17a3,3,0,0,0-2.44,2.85c-.08.84-.12,1.69-.12,2.54,0,3.71,0,7.42,0,11.13a4.46,4.46,0,0,1,0,.66.32.32,0,0,1-.53.23,4.38,4.38,0,0,1-.62-.51l-15-14.26-.22-.18v.5c0,2.62,0,5.23,0,7.85a15.77,15.77,0,0,0,.16,2.24,3.21,3.21,0,0,0,2.89,2.71c.34,0,.68.05,1,.06s.43.09.46.35a.38.38,0,0,1-.39.46,4.74,4.74,0,0,1-.52,0H20a4.72,4.72,0,0,1-.52,0,.34.34,0,0,1-.35-.34.46.46,0,0,1,.45-.47l.7,0a3.12,3.12,0,0,0,2.83-2.44,7.72,7.72,0,0,0,.32-2.23c0-3,0-6,0-9a.83.83,0,0,0-.2-.49c-.23-.27-.49-.5-.74-.74a3.5,3.5,0,0,0-2.63-1c-.05,0-.13,0-.16,0s-.36-.23-.37-.36.16-.33.3-.42a1,1,0,0,1,.47,0c2.93,0,5.85,0,8.78,0a1.16,1.16,0,0,1,.86.34l9.62,8.84.44.4Z"/><path class="cls-2" d="M195.71,45.31c-.11-1.95-.18-3.9-.35-5.84a3.68,3.68,0,0,0-1.06-2.1,2.57,2.57,0,0,0-2-.79c-.6,0-.76-.1-.76-.43s.19-.42.78-.42h7.81a4.11,4.11,0,0,1,.44,0c.26,0,.37.18.35.44s-.19.34-.44.36a11.33,11.33,0,0,0-1.56.16,3,3,0,0,0-2.38,2.67,23,23,0,0,0-.16,2.46c0,3.86,0,7.71,0,11.57a3.44,3.44,0,0,1-.17.75,2.74,2.74,0,0,1-.76-.36c-1.69-1.57-3.35-3.17-5-4.76L180.1,39.29l-.1-.07a3,3,0,0,0,0,.3c0,2.87,0,5.75,0,8.62a9.4,9.4,0,0,0,.23,2,3,3,0,0,0,2.68,2.33c.39,0,.78.06,1.17.08s.42.08.44.36a.37.37,0,0,1-.39.45c-.15,0-.29,0-.44,0h-8a3.75,3.75,0,0,1-.48,0c-.24,0-.41-.18-.33-.41a.67.67,0,0,1,.39-.37,3.36,3.36,0,0,1,.72,0,3.12,3.12,0,0,0,2.9-2.57,10.82,10.82,0,0,0,.29-2.68c0-2.76,0-5.53,0-8.29a.92.92,0,0,0-.33-.78c-.32-.27-.61-.58-.92-.85a3.31,3.31,0,0,0-2.32-.77c-.29,0-.57,0-.59-.38s.29-.46.58-.46c3.09,0,6.18,0,9.27,0a1,1,0,0,1,.54.28l9.42,8.64.74.68Z"/><path class="cls-2" d="M153.48,48.51a16.09,16.09,0,0,0,.19,2,2.54,2.54,0,0,0,2.27,1.94c.35,0,.7.07,1,.07a.4.4,0,0,1,.45.41c0,.26-.15.39-.39.42a3.12,3.12,0,0,1-.4,0h-8.37a1.12,1.12,0,0,1-.44,0c-.14-.06-.32-.19-.33-.31s.16-.26.29-.35a1,1,0,0,1,.39-.1,4.76,4.76,0,0,0,3.36-2.3c.86-1.38,1.65-2.81,2.46-4.22q3-5.36,6.06-10.73c.27-.48.48-.49.76,0,1.08,1.85,2.14,3.71,3.21,5.56l5.7,9.91a2.79,2.79,0,0,0,1.86,1.61,9,9,0,0,0,1.24.12c.29,0,.48.11.5.41s-.2.39-.44.42a2.88,2.88,0,0,1-.4,0H160a2.87,2.87,0,0,1-.4,0,.36.36,0,0,1-.36-.44.39.39,0,0,1,.42-.39c.67,0,1.35,0,2-.07,1-.08,1.2-.55.75-1.39s-.86-1.59-1.31-2.37a.55.55,0,0,0-.39-.26c-2.32,0-4.64,0-7,0Zm3.87-6.68-3.29,5.84h6.47Z"/><path class="cls-2" d="M113.29,53.4H107.1a2.91,2.91,0,0,1-.4,0c-.24,0-.4-.15-.37-.43a.39.39,0,0,1,.42-.4c.44,0,.89,0,1.33,0a5.1,5.1,0,0,0,1.08-.14c.57-.16.76-.53.49-1-.47-.92-1-1.82-1.5-2.73a.43.43,0,0,0-.32-.17h-6.92c-.31,0-.31.21-.33.4-.18,2.13.68,3.64,3.17,3.7.13,0,.3,0,.4,0a.58.58,0,0,1,.29.36.53.53,0,0,1-.22.4.92.92,0,0,1-.47.07h-8.5a1.19,1.19,0,0,1-.47-.07c-.11-.05-.25-.19-.25-.3a.41.41,0,0,1,.24-.31c.36-.12.73-.17,1.09-.28a5.3,5.3,0,0,0,3.08-2.7c1.87-3.26,3.71-6.54,5.56-9.81l2.55-4.5c.34-.6.52-.61.87,0l3.67,6.37c1.72,3,3.47,6,5.14,9a3.1,3.1,0,0,0,3,1.78.68.68,0,0,1,.42.09.48.48,0,0,1,.15.38.46.46,0,0,1-.25.3,1.6,1.6,0,0,1-.56.07Zm-5.7-5.73-3.19-5.84-3.3,5.84Z"/><path class="cls-2" d="M140.34,35.87h6.84c.26,0,.43.13.41.43s-.19.4-.45.4c-.78,0-1.56,0-2.34.06a1.38,1.38,0,0,0-1.42,1.53c0,1.16,0,2.32,0,3.48,0,1.93,0,3.86,0,5.79a12.31,12.31,0,0,1-.27,2.36,4.71,4.71,0,0,1-3.45,3.57,11,11,0,0,1-7.85-.36,4.86,4.86,0,0,1-2.08-1.62,3.07,3.07,0,0,1,.83-4.53,2.86,2.86,0,0,1,4.29,1.88,2.39,2.39,0,0,1-.87,2.27,7.05,7.05,0,0,1-.9.68.35.35,0,0,0-.16.47,1.05,1.05,0,0,0,.76.72,6,6,0,0,0,2.6.16c.65-.09,1-.62,1-1.41s0-1.83,0-2.75c0-3.43,0-6.85,0-10.28a4.26,4.26,0,0,0-.15-1.08,1.15,1.15,0,0,0-1.05-.85c-.77,0-1.53-.05-2.3-.08-.12,0-.27,0-.36,0s-.3-.25-.31-.38a.59.59,0,0,1,.27-.4.87.87,0,0,1,.43,0Z"/><path class="cls-2" d="M85,35.74h6.51a3.48,3.48,0,0,1,.36,0c.26,0,.43.15.41.44a.38.38,0,0,1-.43.39H90.63c-.42,0-.83,0-1.25.07a1.32,1.32,0,0,0-1.27,1.28,7.92,7.92,0,0,0,0,.81q0,5.83,0,11.65a4.79,4.79,0,0,0,.11,1.12,1.16,1.16,0,0,0,1.18,1c.77,0,1.53.05,2.3.07.31,0,.64,0,.64.42s-.34.43-.64.43H81.23c-1,0-1.92,0-2.87,0a.85.85,0,0,1-.52-.16.45.45,0,0,1,0-.44.58.58,0,0,1,.42-.23c.81,0,1.62,0,2.42-.08a1.25,1.25,0,0,0,1.27-1.26,7.14,7.14,0,0,0,0-.73q0-5.93,0-11.85a4.48,4.48,0,0,0-.13-1.12,1.1,1.1,0,0,0-1.08-.88c-.81,0-1.62-.06-2.42-.07-.3,0-.55-.06-.56-.42s.26-.43.55-.43Z"/><path class="cls-2" d="M7.32,35.87H14c.27,0,.52.06.51.42s-.23.42-.51.42c-.77,0-1.54,0-2.3.06a1.37,1.37,0,0,0-1.4,1.46s0,.08,0,.12c0,4.22,0,8.44,0,12.66a1.62,1.62,0,0,0,1.49,1.62c.64,0,1.29,0,1.94.05s.8.08.78.43c0,.55-.49.4-.8.41-1.7,0-3.4,0-5.1,0H.75a2.72,2.72,0,0,1-.44,0A.32.32,0,0,1,0,53.06a.8.8,0,0,1,.34-.36c.09-.05.24,0,.36,0,.73,0,1.45,0,2.18-.07a1.19,1.19,0,0,0,1.22-1.07,5,5,0,0,0,.09-.92q0-5.93,0-11.85a5,5,0,0,0-.09-.92,1.18,1.18,0,0,0-1.19-1.06c-.79,0-1.59-.05-2.38-.07-.3,0-.54-.05-.54-.43s.28-.41.55-.41Z"/></g><text class="cls-3" transform="translate(84.04 65.79) scale(1.23 1)">LONDON</text></g></g></svg>