<svg xmlns="http://www.w3.org/2000/svg" xmlns:xlink="http://www.w3.org/1999/xlink" viewBox="0 0 48.77 27"><defs><style>.cls-1{opacity:0.61;fill:url(#linear-gradient);}.cls-2{fill:#666;}</style><linearGradient id="linear-gradient" x1="24.4" y1="20.91" x2="33.56" y2="20.91" gradientTransform="matrix(1.02, 0, 0, 1.03, -5.26, -6.36)" gradientUnits="userSpaceOnUse"><stop offset="0.06" stop-color="#ffde5d"/><stop offset="0.11" stop-color="#ffe16c"/><stop offset="0.19" stop-color="#ffe993"/><stop offset="0.3" stop-color="#fff6d2"/><stop offset="0.38" stop-color="#fff"/><stop offset="0.39" stop-color="#fbf9f1"/><stop offset="0.43" stop-color="#eee5bf"/><stop offset="0.48" stop-color="#e2d392"/><stop offset="0.54" stop-color="#d7c36a"/><stop offset="0.59" stop-color="#cfb649"/><stop offset="0.65" stop-color="#c7ab2f"/><stop offset="0.71" stop-color="#c2a21a"/><stop offset="0.78" stop-color="#be9d0b"/><stop offset="0.87" stop-color="#bc9903"/><stop offset="1" stop-color="#bb9800"/></linearGradient></defs><title>49x27 IJ Bee Logo</title><g id="Layer_2" data-name="Layer 2"><g id="Layer_1-2" data-name="Layer 1"><path class="cls-1" d="M24.7,26.76v-.05l-.32.16c-2.89-1.09-4.46-3.33-4.67-6.68a6.38,6.38,0,0,0,4.64,3.89h.12l0,0a6.45,6.45,0,0,0,4.58-3.9c-.2,3.25-1.67,5.46-4.38,6.59m4-10.06c-.35.5-2,2.69-4.33,2.7s-3.93-2.12-4.32-2.66h0l.08-.5A23,23,0,0,1,21,13.5a4.84,4.84,0,0,0,3.39,1,4.9,4.9,0,0,0,3.37-1,21.18,21.18,0,0,1,1,3.2M27.29,7.92l-.08.32a.27.27,0,0,0-.14.26s0,.07.06.11A4.84,4.84,0,0,0,27,9.81a2.83,2.83,0,0,0,0,.75A6.77,6.77,0,0,0,24.4,10h0a6.66,6.66,0,0,0-2.56.58,2.79,2.79,0,0,0,0-.75,8.77,8.77,0,0,0-.33-1.89.47.47,0,0,0-.08-.14,7.73,7.73,0,0,1,3-.92,8,8,0,0,1,3,.91.42.42,0,0,0-.09.14M20.84,5.05A3.73,3.73,0,0,1,22,3.65a6.67,6.67,0,0,0,2.29.43h.29a6.42,6.42,0,0,0,2.28-.44A3.81,3.81,0,0,1,28,5a3.06,3.06,0,0,1,.28,1.22,7.38,7.38,0,0,0-7.67,0,3.06,3.06,0,0,1,.28-1.22"/><path class="cls-2" d="M48.58.93A1.69,1.69,0,0,0,47.37,0a3.09,3.09,0,0,0-.45,0C43.43,0,31.54,5.73,28.23,7.36v0a3.49,3.49,0,0,0,.19-1.1c.5-.36,5.08-3.66,6.9-4.32.15,0-.91-1-4.11,1.58L28.13,4.93A3.92,3.92,0,0,0,26.8,3.4l-.41.15.41-.15L26,2.2a.49.49,0,0,0,.1-.09A11.76,11.76,0,0,0,28.5,1.2a.29.29,0,0,0,.12-.42c-.15-.22-.46,0-.46,0a5.61,5.61,0,0,1-2.37,1c-.14,0-.18.17-.16.31a4.42,4.42,0,0,1-1.24.17h0A4.42,4.42,0,0,1,23.14,2c0-.14,0-.31-.17-.31A5.64,5.64,0,0,1,20.61.76s-.31-.2-.46,0a.29.29,0,0,0,.12.42,11.76,11.76,0,0,0,2.42.91.49.49,0,0,0,.1.09L22,3.4l.41.15L22,3.4a3.92,3.92,0,0,0-1.33,1.53L17.56,3.49c-3.2-2.6-4.26-1.63-4.11-1.58,1.82.66,6.4,4,6.9,4.32a3.23,3.23,0,0,0,.19,1.1v0C17.23,5.73,5.34,0,1.85,0A3.09,3.09,0,0,0,1.4,0,1.67,1.67,0,0,0,.19.93,3.22,3.22,0,0,0,.36,3.46s0,0,0,0a.25.25,0,0,0,.1.34l.08,0A16.83,16.83,0,0,0,2,6.4a7,7,0,0,0,3.86,3,3.33,3.33,0,0,0-.24.39,3.61,3.61,0,0,0-.5,1.72c0,1.47,1.18,3.22,6.83,3.22h0l1.15,0c2.38-.09,5.77-1.87,7.51-2.87A10.49,10.49,0,0,0,16.5,17l-2.05,2s2.28.54,4.23-4.47c0,0,1.37-1.54,2.26-1.29a19.83,19.83,0,0,0-1.1,3.5S17.5,19,17.5,21.05c0,0-2,2-.15,5,0,0,2.27-8.33,2.19-7.27-.25,3.18.54,6.75,4.84,8.21h0c4.3-1.47,5.09-5.06,4.85-8.21,1,.21,2.17,7.27,2.17,7.27,1.82-3-.14-5-.14-5,0-2.05-2.31-4.29-2.35-4.33a18.11,18.11,0,0,0-1.1-3.5c.9-.25,2.27,1.29,2.27,1.29C32,19.52,34.32,19,34.32,19l-2-2a10.54,10.54,0,0,0-4.07-5.15c1.73,1,5.12,2.78,7.49,2.87l1.16,0a11.32,11.32,0,0,0,5.39-1,2.52,2.52,0,0,0,1.44-2.25,3.61,3.61,0,0,0-.5-1.72,3.33,3.33,0,0,0-.24-.39,7,7,0,0,0,3.86-3c1.72-2.52,2.32-4.35,1.78-5.47M36.79,10a7.91,7.91,0,0,0,1.32,2.52c-2.37-.19-5.13-.64-6.36-1.65a.3.3,0,0,0-.2-.06,19.81,19.81,0,0,1-3.78,0l-.2-.13c0-.19,0-.39,0-.54h.25l1.47,0c1.71,0,4.93,0,7.54-.16m-15.93.77a18.07,18.07,0,0,1-4,0,.26.26,0,0,0-.19.06c-1.24,1-4,1.46-6.37,1.65A7.58,7.58,0,0,0,11.62,10h0c2.67.14,6.12.18,7.9.18l1.47,0h.25c0,.15,0,.35,0,.54L21,10.8a.41.41,0,0,0-.16,0M27.22,8l-.08.3a.23.23,0,0,0-.14.24.19.19,0,0,0,.05.1,5.25,5.25,0,0,0-.15,1.13,2.38,2.38,0,0,0,0,.69,7.11,7.11,0,0,0-2.5-.54h0a7.07,7.07,0,0,0-2.5.54,2.38,2.38,0,0,0,0-.69A7.86,7.86,0,0,0,21.55,8a.29.29,0,0,0-.08-.13A8.06,8.06,0,0,1,24.39,7a8.14,8.14,0,0,1,2.91.86.29.29,0,0,0-.08.13m-1-4.38a1.64,1.64,0,0,1-.28.07,1.64,1.64,0,0,0,.28-.07m-.41.11-.26,0,.26,0m-1.46.15h0Zm1.09-.08-.31,0,.31,0m-.33,0-.29,0,.29,0m-.36,0h0m-.21,0h0Zm-1.4-.1-.26,0,.26,0m1.12.1h0Zm-.16,0h0m-.23,0-.29,0,.29,0m-.31,0-.31,0,.31,0m-.81-.15a1.64,1.64,0,0,1-.28-.07,1.64,1.64,0,0,0,.28.07M20.9,5.05A3.75,3.75,0,0,1,22,3.71a6.49,6.49,0,0,0,2.23.42h.29a6.49,6.49,0,0,0,2.23-.42,3.75,3.75,0,0,1,1.11,1.34,2.75,2.75,0,0,1,.26,1.15,7.39,7.39,0,0,0-7.49,0,2.75,2.75,0,0,1,.26-1.15M.78,1.21A1,1,0,0,1,1.49.67h0l.32,0c3.55,0,16.92,6.56,19,7.57-2.64-.23-5.07-.57-7.25-1A8.66,8.66,0,0,0,3.35,4.43l0,0c-1-.38-1.77-.7-2.2-.89C.53,2.25.62,1.55.78,1.21m12,5.87A64,64,0,0,1,4,4.72a7.93,7.93,0,0,1,8.77,2.36M2.52,6A16,16,0,0,1,1.45,4.28,65.89,65.89,0,0,0,21.06,8.73h0l.12.67H18q-4.79,0-7.94-.17l-.36,0c-.33,0-.67-.05-1-.07C6.63,9,4.48,8.89,2.52,6m4,3.54c.9.12,2.08.23,3.51.3l1.07.08a7.45,7.45,0,0,1-1.51,2.62c-1.7.11-3.08.1-3.35.1a1.9,1.9,0,0,1-.37-.55,2.86,2.86,0,0,1,.65-2.55m6.54,4.47c-.39,0-.77,0-1.13,0h0a10.63,10.63,0,0,1-5-.9c.63,0,1.59,0,2.72-.08h.09a.23.23,0,0,0,.11,0c2.51-.17,5.64-.62,7.12-1.74a23.32,23.32,0,0,0,3.13.05c-1.74,1-4.87,2.59-7,2.67M24.67,26.6v-.05l-.3.15a6.49,6.49,0,0,1-4.57-6.15,6.22,6.22,0,0,0,4.54,3.59h.14A6.27,6.27,0,0,0,29,20.55a6.44,6.44,0,0,1-4.3,6.05m3.95-9.94c-.34.47-2,2.54-4.23,2.54s-3.85-2-4.22-2.51h0l.08-.46a18.33,18.33,0,0,1,.83-2.58,4.88,4.88,0,0,0,3.31,1,4.89,4.89,0,0,0,3.3-1,19.15,19.15,0,0,1,.93,3m7.1-2.61c-2.11-.08-5.2-1.66-6.95-2.65a23.57,23.57,0,0,0,2.73-.07c1.48,1.12,4.61,1.57,7.12,1.74a.2.2,0,0,0,.11,0h.08c1.24.07,2.3.09,2.91.09h.19c-1.17.68-3.27,1-6.19.87m7.19-1.92a2.1,2.1,0,0,1-.47.67.21.21,0,0,0-.2-.12s-1.53,0-3.41-.1A7.42,7.42,0,0,1,37.32,10c.51,0,1-.05,1.43-.09,1.43-.07,2.6-.18,3.51-.3a2.86,2.86,0,0,1,.65,2.55M46.25,6c-2,2.85-4.11,3-6.19,3.11-.33,0-.67,0-1,.07l-.38,0c-2.09.11-4.74.17-7.93.17H27.59l.11-.67a0,0,0,0,0,0,0A64.21,64.21,0,0,0,47.43,4.07a16.91,16.91,0,0,1-1.18,2m-10.61,1a7.94,7.94,0,0,1,8.78-2.36,64.17,64.17,0,0,1-8.78,2.36m12.11-3.7h0s-.93.46-2.63,1.09l-.05,0A8.66,8.66,0,0,0,34.84,7.24c-2.05.37-4.33.7-6.8.92C30.35,7,43.42.64,46.92.64l.33,0h0a1,1,0,0,1,.72.55,2.81,2.81,0,0,1-.24,2.17"/></g></g></svg>